<?xml version="1.0" standalone="no"?>
<!DOCTYPE svg PUBLIC "-//W3C//DTD SVG 20010904//EN"
 "http://www.w3.org/TR/2001/REC-SVG-20010904/DTD/svg10.dtd">
<svg version="1.0" xmlns="http://www.w3.org/2000/svg"
 width="1000.000000pt" height="1000.000000pt" viewBox="0 0 1000.000000 1000.000000"
 preserveAspectRatio="xMidYMid meet">

<g transform="translate(0.000000,1000.000000) scale(0.100000,-0.100000)"
fill="#000000" stroke="none">
<path d="M0 5000 l0 -5000 5000 0 5000 0 0 5000 0 5000 -5000 0 -5000 0 0
-5000z m3904 1016 c31 -83 36 -107 36 -178 0 -46 -4 -89 -8 -95 -6 -10 -22
-10 -67 -3 -357 60 -444 72 -484 68 -27 -3 -81 -22 -126 -44 -65 -32 -81 -44
-88 -69 -17 -60 -18 -62 -26 -40 -4 11 -9 56 -10 101 l-2 81 39 26 c21 15 48
41 61 57 12 17 27 28 33 24 7 -5 8 -2 4 5 -5 7 0 21 9 31 10 11 15 26 12 34
-7 17 39 60 74 71 17 6 32 -3 68 -39 26 -25 51 -46 55 -46 5 0 6 27 3 60 -5
58 -4 60 19 60 19 0 29 -12 52 -57 16 -32 35 -75 41 -95 17 -51 36 -66 60 -44
20 19 41 86 41 135 0 16 6 33 13 38 23 14 122 30 138 22 9 -4 32 -51 53 -103z
m-6 -320 c12 -11 12 -23 1 -70 -11 -52 -14 -56 -40 -56 -27 0 -28 2 -31 53
l-3 52 -42 3 -43 3 0 -49 c0 -48 -1 -49 -41 -67 -54 -25 -137 -110 -149 -155
-13 -46 -13 -135 0 -182 18 -63 69 -120 128 -143 29 -11 55 -28 58 -37 8 -26
74 -24 97 2 9 11 28 20 43 20 30 0 120 87 130 126 15 59 24 13 24 -120 0 -141
0 -144 -22 -150 -44 -11 -56 -6 -75 32 l-18 37 -95 -3 c-100 -4 -186 15 -203
44 -5 9 -21 14 -42 12 -19 -1 -32 -5 -29 -9 2 -4 0 -10 -5 -13 -12 -8 -21 18
-21 62 0 20 -5 72 -11 116 -8 55 -8 134 -3 245 l9 164 64 40 c39 25 87 45 125
53 72 15 175 10 194 -10z m-619 -36 c12 -17 19 -36 15 -42 -4 -6 -3 -8 3 -5 6
4 16 0 23 -9 9 -10 22 -13 40 -9 22 5 33 -1 68 -39 43 -47 52 -83 36 -143 -9
-32 -26 -29 -83 12 -35 25 -52 45 -56 67 -4 17 -15 32 -25 35 -22 6 -60 90
-60 132 0 39 10 39 39 1z m-81 -142 c17 -75 49 -118 88 -118 20 0 49 -14 84
-40 29 -22 61 -42 71 -45 12 -4 16 -15 15 -38 -2 -18 -4 -49 -5 -70 l-1 -37
-61 37 c-76 48 -149 117 -189 179 -26 41 -30 57 -30 116 0 37 3 68 8 68 4 0
13 -23 20 -52z m615 21 c86 -13 105 -28 142 -111 24 -54 27 -70 23 -138 -6
-97 -27 -136 -93 -172 -99 -54 -203 -32 -272 58 -26 35 -28 45 -31 140 l-4
104 58 56 c49 47 79 69 102 73 2 1 36 -4 75 -10z m459 -453 c5 -9 8 -46 6 -83
l-3 -68 -50 -3 c-38 -3 -52 1 -62 14 -13 18 -19 145 -7 157 13 12 107 -1 116
-17z m-852 -82 l0 -55 -37 3 c-38 3 -38 4 -41 50 -3 49 2 54 56 57 20 1 22 -3
22 -55z m-198 -43 c35 -45 110 -98 193 -138 47 -22 72 -39 68 -47 -3 -6 -3 -8
2 -4 4 4 14 3 20 -2 26 -22 358 -49 369 -31 4 6 29 11 57 11 27 0 102 12 166
26 153 33 147 33 151 7 4 -24 40 -56 54 -47 4 3 8 1 8 -5 0 -5 -5 -13 -10 -16
-6 -4 -25 -36 -41 -71 -19 -40 -40 -68 -53 -73 -50 -19 -268 -41 -412 -41
l-154 0 -25 51 c-29 56 -23 52 -222 129 -106 40 -114 42 -131 27 -10 -10 -23
-17 -28 -17 -5 0 -37 27 -72 59 l-63 59 26 64 c42 100 57 109 97 59z m378 -4
c0 -26 6 -36 25 -45 43 -20 65 -15 65 13 0 14 4 25 9 25 26 0 41 -15 41 -40 0
-31 18 -40 81 -40 39 0 49 12 49 56 0 44 25 25 47 -36 l22 -61 -25 -9 c-14 -6
-79 -7 -150 -3 l-125 6 -54 41 c-42 32 -54 47 -55 69 0 18 5 27 15 27 9 0 18
7 21 15 11 29 34 16 34 -18z m64 4 c3 -4 3 -11 0 -14 -8 -8 -34 3 -34 14 0 11
27 12 34 0z m176 -39 c0 -15 -6 -17 -35 -14 -51 6 -46 32 7 32 20 0 28 -5 28
-18z m3513 0 c10 -10 14 -22 10 -27 -5 -4 -3 -5 4 -1 14 7 56 -47 45 -59 -4
-5 -2 -5 5 -1 20 11 178 -194 231 -299 52 -104 75 -197 70 -278 -5 -74 -33
-151 -51 -140 -6 3 -7 1 -3 -5 11 -17 -42 -70 -89 -88 -67 -25 -139 -16 -230
31 -41 20 -91 52 -112 70 -36 31 -37 33 -21 56 8 13 28 31 43 39 30 16 25 18
134 -51 67 -42 129 -46 177 -12 17 12 33 21 35 18 5 -5 8 9 15 92 5 56 2 71
-30 144 -19 45 -32 87 -29 92 3 6 1 7 -4 4 -14 -9 -56 61 -47 75 4 6 2 8 -3 5
-6 -4 -19 6 -28 21 -10 15 -29 39 -42 54 -15 16 -22 31 -18 39 5 7 4 10 -2 6
-6 -4 -41 22 -78 58 -63 60 -67 67 -61 97 8 40 32 78 50 78 7 0 20 -8 29 -18z
m-4218 -173 c57 -58 90 -74 125 -59 32 13 55 7 210 -54 79 -31 87 -37 111 -81
15 -26 33 -51 40 -56 8 -5 74 -9 147 -9 l134 0 -24 -30 c-13 -16 -32 -32 -43
-34 -11 -3 -92 -10 -180 -15 -124 -8 -170 -7 -203 2 -23 7 -39 17 -35 22 4 4
2 5 -4 1 -19 -11 -95 27 -204 99 -123 82 -139 102 -139 171 0 54 7 84 19 84 4
0 25 -18 46 -41z m4123 -32 c12 -13 19 -27 15 -32 -5 -4 -3 -5 4 -1 15 8 87
-79 77 -95 -4 -7 -3 -9 4 -5 14 8 36 -30 26 -46 -4 -6 -3 -8 3 -5 13 8 75 -91
67 -105 -4 -7 -2 -8 4 -4 24 14 109 -173 95 -209 -6 -16 -88 -21 -110 -7 -7 4
-21 33 -32 63 -10 30 -30 78 -45 107 -15 29 -24 58 -20 65 4 7 3 9 -1 4 -5 -4
-26 21 -48 55 -22 35 -57 84 -78 109 -44 53 -45 58 -24 99 19 36 34 38 63 7z
m-2731 -19 c-3 -13 -15 -51 -28 -86 l-22 -62 38 -83 c44 -97 58 -111 126 -128
28 -7 53 -19 56 -26 3 -7 -14 -74 -36 -149 -56 -186 -60 -226 -27 -287 15 -27
24 -53 20 -58 -3 -5 -1 -8 3 -7 10 3 103 -82 103 -94 0 -4 -7 -14 -16 -22 -14
-15 -18 -13 -48 19 -38 40 -58 43 -103 15 l-33 -20 -15 30 c-14 27 -20 30 -66
30 -43 0 -54 -4 -78 -30 l-27 -30 -33 45 c-44 61 -61 69 -107 50 -20 -8 -40
-15 -45 -15 -14 0 -3 52 21 98 12 23 20 51 17 62 -6 24 6 28 68 23 33 -3 56 0
67 9 21 15 109 286 111 338 1 24 -7 46 -26 71 -15 20 -24 39 -19 44 4 5 2 5
-5 2 -13 -8 -63 47 -63 70 0 22 42 103 50 98 4 -3 7 1 7 8 -1 6 9 33 21 60 21
43 26 47 59 47 32 0 35 -2 30 -22z m2563 -188 c23 -35 38 -66 34 -73 -4 -6 -4
-9 1 -5 11 11 38 -29 29 -44 -4 -6 -3 -8 3 -5 15 10 83 -69 83 -96 0 -13 -9
-26 -22 -32 -13 -6 -35 -29 -51 -52 -16 -24 -33 -43 -39 -43 -17 0 -99 91 -92
101 3 5 0 8 -8 7 -7 -2 -12 5 -12 14 1 10 -3 16 -10 15 -6 -1 -10 4 -8 11 1 8
-2 11 -7 8 -12 -8 -34 21 -26 34 4 6 1 9 -6 8 -16 -4 -71 85 -64 103 7 17 125
108 142 108 7 1 31 -26 53 -59z m-2752 -157 l71 -68 -29 -98 c-16 -54 -32
-103 -35 -108 -4 -5 -34 -9 -68 -9 -34 0 -67 -4 -74 -8 -19 -12 -34 -61 -27
-89 4 -14 -1 -51 -11 -84 -16 -53 -21 -59 -45 -59 -22 0 -30 8 -45 40 -26 58
-43 69 -126 78 -41 5 -81 12 -89 15 -18 8 -120 -130 -120 -163 0 -20 -2 -20
-41 11 -41 32 -41 33 -36 85 5 46 14 64 77 146 40 51 76 93 80 93 5 0 12 4 17
9 5 5 2 6 -6 1 -9 -5 -12 -3 -9 6 4 11 34 15 135 17 152 3 151 2 177 102 30
114 38 131 60 140 50 20 72 12 144 -57z m2498 -13 c21 -30 76 -96 121 -146 74
-83 123 -148 123 -165 0 -4 -10 -10 -22 -13 -48 -13 -98 -74 -98 -118 l0 -28
-42 17 c-49 18 -130 91 -121 107 3 6 2 7 -2 3 -14 -12 -185 164 -185 189 0 12
11 46 25 76 14 29 25 61 25 71 0 13 19 27 63 47 34 16 65 25 68 22 3 -4 23
-32 45 -62z m764 -388 c0 -42 -44 -144 -78 -182 -82 -90 -243 -104 -397 -35
-73 33 -115 76 -115 117 0 37 26 82 41 72 5 -3 8 0 7 8 -6 28 46 18 136 -27
73 -36 105 -46 146 -47 46 -1 56 2 77 26 12 15 23 39 23 52 0 24 2 25 38 20
20 -4 51 -2 67 3 45 14 55 13 55 -7z m-3597 -118 c52 -37 83 -82 103 -152 24
-81 15 -161 -23 -215 -16 -23 -35 -41 -41 -40 -6 2 -9 -3 -6 -11 7 -17 -122
-128 -207 -179 -79 -46 -164 -73 -294 -93 -201 -31 -628 -3 -642 42 -2 7 22
16 59 24 35 6 90 23 123 36 33 14 65 22 73 19 7 -2 11 -1 8 3 -3 4 39 28 92
52 159 71 262 130 347 199 115 92 123 102 222 275 l45 78 50 -4 c33 -4 63 -15
91 -34z m2042 -15 c48 -13 150 -111 141 -135 -3 -8 -2 -13 3 -10 12 8 43 -42
35 -56 -4 -6 -3 -9 2 -5 5 3 29 -18 54 -47 89 -103 160 -147 395 -241 176 -71
235 -85 363 -85 56 0 102 -4 102 -9 0 -5 -13 -20 -30 -34 -63 -54 -263 -97
-444 -97 -335 1 -710 186 -868 428 -36 55 -43 74 -43 117 0 60 19 94 75 131
77 51 140 64 215 43z m-1727 -141 c13 -25 26 -71 29 -102 l6 -56 -75 0 c-44 0
-79 5 -86 12 -7 7 -12 44 -12 95 0 94 8 105 75 100 37 -2 42 -6 63 -49z m196
-22 c-1 -41 -6 -63 -17 -71 -9 -6 -18 -22 -22 -36 -5 -22 -10 -24 -46 -21
l-39 4 0 48 c0 91 38 143 100 137 24 -2 25 -5 24 -61z m160 12 c-1 -10 3 -15
9 -11 11 6 6 -25 -14 -99 l-10 -39 -57 3 -57 3 3 44 c3 55 15 77 55 102 38 23
73 21 71 -3z m136 -52 c0 -26 -6 -48 -15 -56 -8 -7 -15 -21 -15 -31 0 -14 -7
-19 -30 -19 -30 0 -30 1 -30 54 0 47 4 57 26 75 15 12 35 21 45 21 16 0 19 -8
19 -44z m996 -293 c11 -87 -2 -249 -23 -291 -17 -35 -21 -37 -72 -40 -87 -5
-153 29 -147 77 4 35 35 83 49 74 5 -3 7 -2 4 4 -4 6 12 34 34 64 22 30 54 80
70 112 23 46 34 57 53 57 22 0 25 -5 32 -57z m-1666 3 c6 -18 20 -42 31 -52
11 -10 17 -24 14 -31 -2 -8 -1 -12 3 -9 13 8 84 -72 76 -85 -5 -8 -3 -9 5 -5
14 9 31 -10 61 -66 43 -81 17 -110 -107 -116 -57 -3 -84 -1 -80 6 4 5 -1 9
-11 8 -10 0 -24 13 -35 34 -15 30 -18 56 -15 176 2 101 7 146 17 157 20 25 28
21 41 -17z m1246 -162 c8 -42 -7 -64 -30 -44 -11 8 -14 21 -10 39 13 54 30 56
40 5z m-778 -16 c-4 -49 -61 -68 -72 -24 -10 39 2 56 41 56 33 0 34 -1 31 -32z
m847 8 c31 -11 41 -20 43 -40 4 -31 -16 -42 -55 -29 -22 8 -28 16 -31 46 -2
20 -2 37 0 37 2 0 21 -7 43 -14z m-957 -53 c-3 -38 -3 -38 -48 -38 -39 0 -45
3 -48 23 -6 42 4 52 53 52 l46 0 -3 -37z m-1200 -1355 l3 -47 -234 -3 c-212
-3 -237 -5 -255 -22 -51 -45 -31 -122 38 -150 22 -9 93 -25 157 -37 129 -23
162 -36 211 -82 35 -33 72 -120 72 -167 0 -26 -4 -30 -28 -30 -16 0 -69 -3
-118 -6 -86 -6 -89 -6 -99 17 -15 35 -58 55 -205 94 -205 54 -256 95 -267 213
-6 66 19 213 43 250 l15 22 332 -2 332 -3 3 -47z m531 -15 c108 -370 132 -456
127 -460 -3 -3 -43 -9 -88 -14 -149 -14 -130 -26 -168 114 -18 67 -38 142 -45
167 l-13 45 -8 -30 c-4 -16 -24 -95 -43 -175 l-36 -145 -108 -8 c-60 -5 -111
-6 -114 -3 -6 6 129 484 153 544 l13 32 155 0 155 0 20 -67z m540 -87 c35 -80
67 -146 70 -146 3 1 38 68 78 151 l72 150 148 -3 148 -3 3 -227 c1 -145 -1
-228 -7 -228 -17 0 -762 -59 -813 -64 l-48 -5 0 258 c0 142 3 261 8 265 4 4
68 5 142 3 l135 -5 64 -146z m789 -68 l2 -218 -32 -1 c-18 0 -68 -4 -110 -7
l-78 -8 0 229 0 228 108 -3 107 -3 3 -217z m487 22 l0 -195 -46 -6 c-26 -4
-75 -9 -110 -11 l-64 -3 -3 195 c-1 107 0 200 3 208 3 10 31 12 112 10 l108
-3 0 -195z m721 174 c40 -61 25 -297 -20 -313 -12 -4 -158 -18 -326 -31 -168
-12 -309 -23 -315 -24 -10 -1 -20 356 -11 381 4 10 75 13 330 13 l326 0 16
-26z m502 -94 c17 -63 35 -129 38 -147 l6 -31 -89 -7 c-48 -3 -97 -7 -107 -8
-15 -2 -22 7 -30 40 -15 59 -23 61 -30 8 -4 -25 -13 -48 -20 -51 -15 -6 -199
-22 -204 -18 -4 2 87 314 95 327 2 4 73 6 156 5 l152 -3 33 -115z m390 -17 l3
-131 -53 -6 c-29 -3 -79 -8 -110 -11 l-58 -5 0 145 0 146 108 -3 107 -3 3
-132z m72 -372 c0 -115 -3 -216 -6 -225 -5 -13 -24 -16 -109 -16 -98 0 -103 1
-109 23 -3 12 -6 108 -6 214 l0 192 33 6 c29 4 73 8 165 13 l32 2 0 -209z
m-292 -19 c29 -108 52 -203 52 -209 0 -10 -29 -13 -110 -13 l-109 0 -10 38
c-5 20 -28 106 -50 190 -23 84 -41 160 -41 167 0 14 30 18 165 23 l50 2 53
-198z m-335 151 c-3 -16 -25 -104 -47 -198 l-41 -170 -113 -3 c-102 -2 -112
-1 -111 15 0 10 24 97 52 193 l52 175 70 6 c150 12 146 12 138 -18z m-297 -42
c-14 -27 -44 -65 -67 -85 l-42 -35 33 -93 c18 -51 35 -99 38 -106 3 -10 -22
-12 -119 -10 l-123 3 -36 95 c-36 95 -36 95 -70 95 l-35 0 -3 -98 -3 -98 -107
3 -107 3 -3 158 c-2 121 0 158 10 162 7 2 137 14 288 25 151 11 284 22 295 24
11 2 32 4 48 5 l27 1 -24 -49z m-696 -157 c0 -128 -2 -148 -17 -160 -14 -10
-88 -13 -340 -14 -385 0 -353 -14 -353 152 0 59 3 109 8 112 4 2 56 8 115 12
l107 7 0 -67 c0 -114 30 -146 135 -146 46 0 60 5 87 29 31 27 33 33 38 117 l5
89 65 6 c36 3 84 6 108 7 l42 2 0 -146z m-752 -41 l-3 -128 -110 0 -110 0 -3
103 c-2 73 -6 102 -14 100 -7 -3 -27 -50 -46 -106 l-34 -102 -112 0 -112 0
-37 103 c-20 56 -37 105 -37 108 0 3 24 7 53 8 28 1 147 11 262 21 116 9 232
18 258 19 l48 1 -3 -127z m-648 -28 l0 -105 -105 0 c-122 0 -118 -5 -113 120
l3 75 70 6 c39 3 87 6 108 7 l37 2 0 -105z m-254 0 c13 -44 24 -86 24 -93 0
-10 -27 -12 -117 -10 l-118 3 -23 79 c-12 44 -20 81 -18 83 5 6 173 21 205 19
21 -1 27 -11 47 -81z m-437 38 c0 -10 -8 -45 -17 -78 l-17 -60 -248 -3 c-136
-1 -247 1 -247 5 1 5 7 19 15 33 8 14 14 37 15 51 0 27 0 27 103 34 56 3 110
9 120 11 14 4 17 -1 17 -31 0 -42 15 -39 23 4 6 29 7 29 94 36 77 5 105 8 136
14 4 0 7 -7 6 -16z"/>
<path d="M3671 5436 l-53 -57 4 -74 c5 -112 49 -160 154 -171 60 -6 62 -6 99
28 30 27 39 45 46 84 14 90 11 129 -16 168 -14 21 -22 42 -19 48 4 7 2 8 -5 4
-6 -4 -18 -2 -26 4 -8 7 -40 14 -72 17 l-58 5 -54 -56z"/>
<path d="M3300 4597 c0 -32 3 -35 69 -61 38 -15 85 -30 105 -33 36 -6 36 -5
36 30 0 34 -2 37 -42 47 -24 6 -68 20 -99 30 -31 11 -59 20 -63 20 -3 0 -6
-15 -6 -33z"/>
<path d="M5920 1601 l0 -101 91 0 c87 0 92 1 120 29 38 39 40 97 5 138 -23 26
-29 28 -120 31 l-96 4 0 -101z"/>
</g>
</svg>
